<svg width="100" height="100" viewBox="0 0 100 100" fill="none" xmlns="http://www.w3.org/2000/svg">
<rect width="100" height="100" rx="12" fill="black"/>
<path d="M48.3053 64.2785C44.6402 64.2785 41.2094 63.8737 38.0131 63.0639C34.8593 62.2542 32.6219 61.4444 31.3007 60.6347C30.0222 59.825 29.1698 59.2496 28.7437 58.9087C27.6356 58.0137 27.0816 56.7778 27.0816 55.2009C27.0816 53.965 27.2307 52.793 27.5291 51.6849C28.0831 49.5966 29.0846 48.5525 30.5336 48.5525C31.0024 48.5951 32.494 49.0852 35.0085 50.0228C37.5656 50.9604 39.5686 51.4292 41.0176 51.4292C43.1912 51.4292 44.2779 50.5769 44.2779 48.8721C44.2779 47.8493 43.7452 46.9117 42.6797 46.0594C41.6143 45.1644 40.3144 44.312 38.7802 43.5023C37.2886 42.6925 35.7756 41.7763 34.2414 40.7534C32.7071 39.688 31.4073 38.239 30.3418 36.4064C29.2764 34.5312 28.7437 32.3577 28.7437 29.8858C28.7437 25.7945 30.7467 22.5982 34.7528 20.2968C38.7589 17.9528 43.937 16.7808 50.2871 16.7808C56.6371 16.7808 61.666 17.4414 65.3738 18.7625C69.1242 20.0411 70.9994 21.831 70.9994 24.1324C70.9994 25.7945 70.6158 27.2648 69.8487 28.5434C69.0816 29.7793 68.2718 30.3973 67.4195 30.3973C67.1211 30.3973 66.1196 30.0776 64.4149 29.4383C62.7528 28.7565 61.2399 28.4155 59.8761 28.4155C57.1912 28.4155 55.8487 29.4597 55.8487 31.5479C55.8487 32.5708 56.488 33.5084 57.7665 34.3607C59.045 35.2131 60.5793 36.0441 62.3692 36.8539C64.2018 37.621 66.0344 38.4947 67.867 39.4749C69.6995 40.4551 71.2551 41.7976 72.5336 43.5023C73.8122 45.207 74.4514 47.274 74.4514 49.7032C74.4514 52.1324 73.663 54.3486 72.0861 56.3516C70.5519 58.3546 68.5062 59.9102 65.9492 61.0183C60.8776 63.1918 54.9963 64.2785 48.3053 64.2785Z" fill="white"/>
<rect x="16.5664" y="73.3828" width="8.454" height="10.739" rx="0.585938" fill="#FDDB27"/>
<rect x="31.4844" y="73.3828" width="8.454" height="5.6624" rx="0.585938" fill="#FDDB27"/>
<rect x="46.4062" y="73.3828" width="8.454" height="10.739" rx="0.585938" fill="#FDDB27"/>
<rect x="61.3203" y="73.3828" width="8.454" height="5.6624" rx="0.585938" fill="#FDDB27"/>
<rect x="76.2461" y="73.3828" width="8.454" height="10.739" rx="0.585938" fill="#FDDB27"/>
</svg>
