<svg height="511pt" viewBox="0 -87 511.9996 511" width="511pt" xmlns="http://www.w3.org/2000/svg"><path d="m51.828125 205.023438c-8.355469-22.851563-17.691406-42.15625-27.757813-57.382813-8.6875-13.140625-11.128906-29.453125-6.695312-44.757813 10.273438-35.445312 18.679688-62.1875 24.488281-77.984374 13.835938 22.210937 45.21875 69.144531 88.957031 113.996093 34.738282 35.628907 70.027344 62.375 104.882813 79.503907 44.1875 21.710937 87.785156 27.980468 129.589844 18.636718.085937-.015625.167969-.039062.246093-.058594 10.765626-2.785156 18.144532-8.84375 21.757813-17.730468 15.507813 6.082031 49.175781 18.851562 66.546875 22.195312 3.570312.6875 6.984375 1.589844 10.148438 2.683594.820312.28125 1.65625.417969 2.476562.417969 3.15625 0 6.105469-1.980469 7.191406-5.128907 1.367188-3.96875-.742187-8.296874-4.710937-9.667968-3.839844-1.324219-7.949219-2.410156-12.226563-3.238282-20.296875-3.90625-67.542968-22.851562-71.550781-24.46875-18.476563-9.609374-48.042969-9.582031-82.230469-9.5625-34.609375.03125-73.789062.054688-100.378906-11.605468-20.207031-14.234375-40.488281-31.726563-60.640625-52.375-57.484375-58.886719-94.289063-123.488282-94.652344-124.132813-1.371093-2.425781-4.003906-3.90625-6.738281-3.863281-2.78125.042969-5.316406 1.601562-6.613281 4.0625-7.152344 13.609375-20.886719 58.675781-31.148438 94.089844-5.675781 19.59375-2.535156 40.507812 8.613281 57.375 9.410157 14.238281 18.214844 32.480468 26.160157 54.21875 1.441406 3.941406 5.804687 5.972656 9.75 4.53125 3.949219-1.441406 5.976562-5.808594 4.535156-9.753906zm251.125 2.660156c27.789063-.023438 54.210937-.039063 70.269531 5.71875-1.824218 4.472656-5.484375 7.273437-11.371094 8.820312-37.566406 8.367188-76.949218 2.859375-117.089843-16.34375 19.167969 1.832032 39.332031 1.820313 58.191406 1.804688zm0 0"/><path d="m497.875 247.664062c-2.890625-3.046874-7.703125-3.179687-10.75-.292968-3.050781 2.886718-3.179688 7.703125-.292969 10.75 6.515625 6.882812 9.960938 15.136718 9.960938 23.871094 0 7.65625-10.054688 16.125-27.582031 23.230468-18.222657 7.390625-43.804688 12.863282-70.191407 15.015625-23.605469 1.925781-62.910156 2.527344-102.441406-1.578125-42.105469-4.371094-72.425781-12.742187-87.6875-24.207031-14.335937-10.765625-27.6875-28.179687-40.597656-45.023437-18.460938-24.078126-34.40625-44.875-52.355469-44.875-3.585938 0-6.683594 2.503906-7.433594 6.011718-.367187 1.710938-6.320312 29.703125-10.121094 59.574219h-27.914062c-2.398438-11.148437-5.441406-23.398437-9.035156-35.71875-1.175782-4.03125-5.390625-6.347656-9.425782-5.171875-4.035156 1.175781-6.347656 5.398438-5.171874 9.429688 9.945312 34.105468 14.578124 63.585937 14.578124 72.773437 0 4.199219 3.402344 7.605469 7.601563 7.605469h33.832031c4.203125 0 7.605469-3.40625 7.605469-7.605469 0-29.039063 7.90625-72.433594 11.347656-89.957031 10.007813 5.34375 22.851563 22.097656 34.421875 37.1875 13.535156 17.65625 27.53125 35.910156 43.53125 47.929687 31.535156 23.6875 105.003906 30.273438 158.945313 30.273438 16.152343 0 30.558593-.59375 41.554687-1.492188 55.621094-4.535156 111.746094-22.804687 111.746094-53.402343 0-12.699219-4.882812-24.566407-14.125-34.328126zm-421.710938 56.183594c-.5-5.035156-1.410156-11.34375-2.6875-18.5h23.195313c-.609375 6.347656-1.058594 12.59375-1.277344 18.5zm0 0"/></svg>