<svg height="511pt" viewBox="-105 1 511 511.99899" width="511pt" xmlns="http://www.w3.org/2000/svg"><path d="m287.964844 178.273438c18.3125-34.597657 18.363281-76.050782.148437-119.867188-13.535156-32.546875-32.160156-54.78125-32.945312-55.710938-1.445313-1.707031-3.570313-2.695312-5.808594-2.695312h-26.371094c-.71875 0-1.59375.15625-2.5.390625-3.105469.808594-5.886719 2.507813-8.21875 4.707031-13.773437 12.996094-34.304687 19.578125-61.101562 19.578125-26.792969 0-47.320313-6.582031-61.101563-19.574219-2.339844-2.207031-5.125-3.910156-8.238281-4.714843-.90625-.230469-1.777344-.386719-2.496094-.386719h-26.367187c-2.242188 0-4.367188.988281-5.808594 2.695312-.800781.945313-19.632812 23.433594-33.175781 56.273438-1.59375 3.867188-.003907 8.472656 3.824219 10.164062 3.929687 1.738282 8.492187-.117187 10.113281-4.066406 10.03125-24.445312 23.535156-43.144531 28.710937-49.859375h15.230469c.726563 21.902344 4.53125 53.671875 13.472656 81.246094 9.601563 29.613281 28.820313 64.914063 65.832031 64.914063 37.007813 0 56.222657-35.300782 65.824219-64.914063 8.941407-27.578125 12.746094-59.34375 13.46875-81.246094h15.238281c5.117188 6.621094 18.34375 24.910157 28.371094 49.039063 16.652344 40.050781 16.804688 76.023437.453125 106.914062-37.578125 71.011719-19.722656 109.152344-3.96875 142.804688 6.320313 13.503906 12.324219 26.371094 13.972657 40.457031-21.335938.652344-44.640626 4.445313-64.050782 20.742187-2.972656 2.5-3.757812 6.90625-1.605468 10.136719 1.5 2.25 3.917968 3.414063 6.351562 3.414063 1.734375 0 3.476562-.589844 4.902344-1.792969 15.773437-13.316406 35.636718-16.628906 54.136718-17.273437-3.585937 20.296874-20.546874 47.4375-49.605468 79.195312-14.4375 15.78125-28.996094 29.511719-38.988282 38.515625 1.457032-34.101563 7.421876-60.84375 17.800782-79.640625 2.007812-3.632812 1.003906-8.332031-2.546875-10.480469-3.703125-2.242187-8.496094-.949219-10.582031 2.804688-12.851563 23.078125-19.464844 54.785156-20.167969 96.75h-58.019531c-.964844-56.925781-12.910157-95.640625-36.453126-118.175781-20.007812-19.152344-44.96875-23.488282-67.902343-24.191407 1.648437-14.089843 7.65625-26.957031 13.976562-40.460937 15.753907-33.652344 33.605469-71.792969-3.972656-142.804688-12.265625-23.175781-15.203125-49.535156-8.730469-78.347656.917969-4.097656-1.65625-8.167969-5.753906-9.085938-4.101562-.914062-8.164062 1.65625-9.085938 5.753907-7.285156 32.449219-3.878906 62.324219 10.128907 88.792969 34.035156 64.3125 18.582031 97.320312 3.640625 129.242187-7.800782 16.664063-15.871094 33.898437-15.871094 54.390625 0 58.78125 103.25 144.722656 107.648438 148.351562 1.363281 1.125 3.074218 1.742188 4.839843 1.742188h73.089844c1.765625 0 3.480469-.617188 4.839844-1.742188 4.398437-3.628906 107.648437-89.570312 107.648437-148.351562 0-20.492188-8.066406-37.726562-15.871094-54.390625-14.9375-31.917969-30.390624-64.929687 3.644532-129.242187zm-136.800782-32.113282c-46.347656 0-60.941406-80.1875-63.703124-123.617187 19.855468 14.066406 44.808593 17.34375 63.707031 17.34375 18.894531 0 43.84375-3.277344 63.691406-17.335938-2.761719 43.433594-17.355469 123.609375-63.695313 123.609375zm-133.097656 223.488282c19.769532.699218 40.921875 4.457031 57.113282 19.953124 18.917968 18.113282 29.480468 50.996094 31.480468 97.855469-30.964844-27.835937-81.941406-80.472656-88.59375-117.808593zm0 0"/></svg>