<svg height="512pt" viewBox="-9 0 512 512" width="512pt" xmlns="http://www.w3.org/2000/svg"><path d="m243.28125 101.648438c-2.496094 1.84375-3.621094 5.144531-2.792969 8.128906.898438 3.253906 3.9375 5.589844 7.324219 5.589844 3.496094 0 6.609375-2.5 7.402344-5.894532 1.578125-6.734375-6.375-11.933594-11.933594-7.824218zm0 0"/><path d="m243.433594 136.570312c-2.542969 1.78125-3.75 5.058594-3 8.066407.835937 3.339843 3.9375 5.757812 7.378906 5.757812 3.527344 0 6.625-2.519531 7.410156-5.941406 1.53125-6.652344-6.230468-11.773437-11.789062-7.882813zm0 0"/><path d="m243.433594 171.601562c-2.738282 1.929688-3.894532 5.523438-2.808594 8.6875 1.042969 3.03125 3.972656 5.136719 7.1875 5.136719 3.382812 0 6.425781-2.335937 7.328125-5.589843 1.867187-6.738282-6.011719-12.246094-11.707031-8.234376zm0 0"/><path d="m308.675781 184.65625c-4.199219 0-7.601562 3.40625-7.601562 7.605469s3.402343 7.605469 7.601562 7.605469h22.089844c4.199219 0 7.605469-3.40625 7.605469-7.605469s-3.40625-7.605469-7.605469-7.605469zm0 0"/><path d="m258.855469 39.335938c4.199219 0 7.605469-3.40625 7.605469-7.605469s-3.40625-7.601563-7.605469-7.601563h-22.089844c-4.199219 0-7.601563 3.402344-7.601563 7.601563s3.402344 7.605469 7.601563 7.605469zm0 0"/><path d="m494.601562 220.488281c-5.335937-9.25-11.171874-31.109375-12.96875-38.753906-.019531-.082031-.054687-.152344-.082031-.230469-.035156-.125-.054687-.253906-.09375-.378906-13.03125-40.035156-23.28125-63.890625-23.710937-64.890625-.382813-.878906-.925782-1.679687-1.605469-2.359375-31.445313-31.449219-75.929687-51.683594-94.382813-59.207031 4.0625-8.179688 4.066407-12.722657 4.066407-14.976563 0-27.078125-37.5-39.691406-118.015625-39.691406-30.578125 0-54.332032 1.742188-72.621094 5.324219-4.121094.804687-6.808594 4.800781-6.003906 8.921875.808594 4.121094 4.804687 6.808594 8.925781 6 17.074219-3.34375 40.527344-5.039063 69.699219-5.039063 33.625 0 59.558594 2.25 77.089844 6.679688 11.730468 2.96875 25.714843 8.464843 25.714843 17.808593 0 13.324219-29.835937 44.714844-53.703125 65.46875l-32.035156-31.6875c20.863281-3.535156 39.0625-13.503906 50.53125-28.140624 2.589844-3.304688 2.011719-8.085938-1.292969-10.675782-3.304687-2.585937-8.085937-2.007812-10.675781 1.296875-11.449219 14.613281-32.699219 23.699219-55.484375 23.738281-.09375-.003906-.1875-.003906-.285156 0-22.773438-.039062-44.027344-9.128906-55.496094-23.742187-2.59375-3.304687-7.371094-3.878906-10.675781-1.289063-3.304688 2.59375-3.882813 7.375-1.289063 10.675782 11.484375 14.632812 29.683594 24.597656 50.542969 28.132812l-32.03125 31.691406c-23.871094-20.753906-53.714844-52.144531-53.714844-65.472656 0-2.515625.734375-6.335937 7.085938-10.460937 3.519531-2.289063 4.519531-7 2.230468-10.519531-2.289062-3.523438-6.996093-4.523438-10.515624-2.234376-11.578126 7.523438-14.007813 16.777344-14.007813 23.214844 0 2.253906.003906 6.796875 4.066406 14.976563-18.453125 7.523437-62.9375 27.757812-94.382812 59.203125-.679688.679687-1.226563 1.480468-1.605469 2.363281-.429688.996094-10.683594 24.855469-23.710938 64.890625-.039062.125-.058593.253906-.09375.378906-.027343.074219-.0625.148438-.082031.230469-1.796875 7.640625-7.632812 29.5-12.972656 38.753906-1.078125 1.875-1.308594 4.117188-.636719 6.171875.488282 1.488282 12.503906 36.65625 58.277344 54.261719.890625.34375 1.808594.507813 2.710938.507813 2.957031 0 5.769531-1.742188 7.011718-4.609376.015625-.039062 1.742188-3.988281 4.980469-7.761718 3.652344-4.253906 7.550781-6.414063 11.582031-6.414063.03125 0 .0625-.007812.09375-.011719 2.546875-.03125 4.992188-1.339843 6.390625-3.625l9.414063-15.371093v225.039062c0 1.949219.746094 3.816407 2.082031 5.230469 1.476563 1.554688 37.320313 38.09375 144.886719 38.09375 107.570312 0 143.414062-36.539062 144.886718-38.09375 1.339844-1.410156 2.085938-3.28125 2.085938-5.230469v-46.535156c0-4.199219-3.40625-7.601563-7.605469-7.601563s-7.605469 3.402344-7.605469 7.601563v43.15625c-8.550781 7.007813-44.691406 31.496094-131.761718 31.496094-86.328125 0-123.101563-24.597657-131.757813-31.539063v-248.589844c0-.011718-.003906-.015624-.003906-.023437-.011719-28.113281-11.066406-53.886719-11.539063-54.96875-1.671874-3.847656-6.144531-5.613281-9.996093-3.945313-3.851563 1.667969-5.617188 6.144532-3.953125 10 .097656.230469 9.710937 22.738282 10.253906 46.839844l-18.867188 30.808594c-16.472656-8.03125-40.429687-25.515625-52.554687-61.882812 10.75-32.777344 19.617187-54.472657 21.882813-59.898438 30.640624-30.070312 75.382812-49.632812 90.734374-55.785156 4.796876 6.621094 11.476563 14.605468 20.789063 24.203125 15.527344 16.007812 30.796875 28.773437 31.4375 29.308593 3.011719 2.507813 7.433594 2.320313 10.21875-.4375l15.050781-14.894531v96.242188c0 4.199219 3.40625 7.605469 7.605469 7.605469h41.402344c4.199219 0 7.605469-3.40625 7.605469-7.605469v-96.246094l15.0625 14.898437c1.472656 1.460938 3.40625 2.199219 5.347656 2.199219 1.722656 0 3.453125-.582031 4.867187-1.761719.644531-.535156 15.910157-13.300781 31.4375-29.308593 9.308594-9.597657 15.988281-17.582031 20.785157-24.203125 15.34375 6.140625 60.039062 25.664062 90.726562 55.785156 2.269531 5.421875 11.136719 27.121094 21.886719 59.898438-12.125 36.367187-36.085938 53.851562-52.554688 61.882812l-18.867187-30.808594c.542968-24.101562 10.15625-46.609375 10.25-46.835937 1.675781-3.851563-.089844-8.328125-3.941406-10.003907-3.855469-1.671874-8.332032.09375-10.003907 3.945313-.472656 1.085937-11.53125 26.863281-11.539062 54.976563v.015624 175.082032c0 4.199218 3.402343 7.605468 7.601562 7.605468 4.203125 0 7.605469-3.40625 7.605469-7.605468v-148.105469l9.414062 15.367187c1.398438 2.285157 3.839844 3.59375 6.386719 3.625.03125.003907.0625.011719.097657.011719 4.03125 0 7.929687 2.160157 11.582031 6.414063 3.234375 3.773437 4.964843 7.722656 4.96875 7.734375 1.226562 2.890625 4.035156 4.640625 7.003906 4.640625.910156 0 1.832031-.164063 2.730469-.511719 45.773437-17.605469 57.785156-52.773437 58.273437-54.261719.675781-2.050781.445313-4.296875-.636719-6.171875zm-427.917968 33.886719c-3.734375 3.101562-6.597656 6.742188-8.617188 9.816406-27.695312-12.628906-38.792968-32.234375-42.097656-39.488281 2.46875-5.101563 4.796875-11.546875 6.777344-17.746094 12.277344 24.089844 29.398437 38.714844 43.9375 47.417969zm194.222656-59.746094h-26.191406v-103.683594l13.09375-12.960937 13.097656 12.957031zm176.648438 69.558594c-2.019532-3.074219-4.882813-6.710938-8.617188-9.8125 14.539062-8.703125 31.660156-23.328125 43.9375-47.417969 1.976562 6.195313 4.304688 12.632813 6.769531 17.730469-3.320312 7.222656-14.503906 26.902344-42.089843 39.5zm0 0"/></svg>