<svg width="346" height="422" viewBox="0 0 346 422" fill="none" xmlns="http://www.w3.org/2000/svg">
<rect x="1.5" y="1.5" width="343" height="419" rx="18.5" fill="white" stroke="#444444" stroke-width="3"/>
<path d="M322.892 33.083C322.8 32.9568 322.69 32.8567 322.569 32.7884C322.448 32.7201 322.318 32.6849 322.187 32.6849C322.056 32.6849 321.926 32.7201 321.805 32.7884C321.684 32.8567 321.575 32.9568 321.482 33.083L316.592 39.7261L311.702 33.0694C311.609 32.9434 311.5 32.8434 311.379 32.7752C311.258 32.707 311.128 32.6719 310.997 32.6719C310.866 32.6719 310.736 32.707 310.615 32.7752C310.495 32.8434 310.385 32.9434 310.292 33.0694C310.199 33.1954 310.126 33.3451 310.076 33.5097C310.026 33.6744 310 33.8509 310 34.0291C310 34.2073 310.026 34.3838 310.076 34.5485C310.126 34.7132 310.199 34.8628 310.292 34.9888L315.182 41.6455L310.292 48.3022C310.199 48.4283 310.126 48.5779 310.076 48.7426C310.026 48.9072 310 49.0837 310 49.2619C310 49.4402 310.026 49.6167 310.076 49.7813C310.126 49.946 310.199 50.0956 310.292 50.2217C310.385 50.3477 310.495 50.4477 310.615 50.5159C310.736 50.5841 310.866 50.6192 310.997 50.6192C311.128 50.6192 311.258 50.5841 311.379 50.5159C311.5 50.4477 311.609 50.3477 311.702 50.2217L316.592 43.5649L321.482 50.2217C321.575 50.3477 321.685 50.4477 321.805 50.5159C321.926 50.5841 322.056 50.6192 322.187 50.6192C322.318 50.6192 322.448 50.5841 322.569 50.5159C322.69 50.4477 322.799 50.3477 322.892 50.2217C322.985 50.0956 323.058 49.946 323.108 49.7813C323.158 49.6167 323.184 49.4402 323.184 49.2619C323.184 49.0837 323.158 48.9072 323.108 48.7426C323.058 48.5779 322.985 48.4283 322.892 48.3022L318.002 41.6455L322.892 34.9888C323.272 34.4715 323.272 33.6003 322.892 33.083Z" fill="#444444"/>
<line x1="46" y1="129" x2="299" y2="129" stroke="#ECB853" stroke-width="8"/>
<rect x="46" y="133" width="253" height="86" fill="#D9D9D9"/>
<line x1="46" y1="129" x2="299" y2="129" stroke="#ECB853" stroke-width="8"/>
<rect x="46" y="133" width="253" height="131" fill="#D9D9D9"/>
</svg>
